<svg xmlns="http://www.w3.org/2000/svg" viewBox="0 0 373.56 313.04"><defs><style>.cls-1{fill:#c22328;}</style></defs><g id="Capa_2" data-name="Capa 2"><g id="Capa_1-2" data-name="Capa 1"><path class="cls-1" d="M360.19,69c11.53,21.13,11.13,42.29-1.66,63.16a56.61,56.61,0,0,0,4.32-25.59c-.56-8.69-4.57-21.24-7.9-24.85.14.38.22.63.32.88,6.24,15.53,5.53,30.69-2.58,45.36-9.5,17.19-29.63,27.41-49.13,25.11-13.7-1.61-25.32-7.4-34.12-18-13.28-16-16.2-34-8.77-53.54.12-.31.42-.6.17-1.11A55.68,55.68,0,0,0,254,118.6a59.64,59.64,0,0,1-.71-37,3.89,3.89,0,0,0-.55,1,63.45,63.45,0,0,0-4.62,33.66,2.32,2.32,0,0,1,0,1.17c-.93,2.55-1.77,5.13-2.73,7.67a48.84,48.84,0,0,1-5.8,11.66,7.4,7.4,0,0,1-2.93,2.59c-1.48.65-2.39.2-2.78-1.36a10.82,10.82,0,0,1-.07-4.05,84.61,84.61,0,0,1,3.87-15.43q2-6.28,4.37-12.44c.3-.8.12-1-.68-.82a9.25,9.25,0,0,0-3.14,1.44,58.2,58.2,0,0,0-15.31,15c-1.76,2.54-3.34,5.2-5,8,.75-4.47,5.8-16.38,9-21.29-.79,0-1.57.12-2.35.13a6.19,6.19,0,0,0-6.19,4c-2.14,5-3.85,10.07-5.49,15.2s-3.24,10.14-6.36,14.54a14,14,0,0,1-6.88,5.55c-3.19,1.1-5.54-.05-6.46-3.33a18.48,18.48,0,0,1-.16-9,1.21,1.21,0,0,1,.89-1c5.38-2.17,10.19-5.13,13.57-10a17.83,17.83,0,0,0,3.57-8.76c.37-4.51-2.83-5.62-5.84-5.23a9.2,9.2,0,0,0-2.18.62,19.42,19.42,0,0,0-6.08,4.2c-5,4.9-7.65,11.06-9.38,17.67a60.82,60.82,0,0,1-5.38,13.8,12.19,12.19,0,0,1-3.79,4.58c-2,1.37-3.62.73-4.16-1.66a13.4,13.4,0,0,1-.07-4.89,56.38,56.38,0,0,1,2.5-10.11c2.09-6.24,3.21-12.88,7.54-18.36-2.06.47-4,.85-5.93,1.37a4.68,4.68,0,0,0-3.3,3.35c-1.06,3.31-2.1,6.62-3.21,9.91a128.09,128.09,0,0,1-7.44,18.69,21,21,0,0,1-4.27,6c-1.88,1.7-4,1-4.6-1.49a11.55,11.55,0,0,1,.21-5.81c1.72-6.45,3.79-12.79,6-19.09a30.11,30.11,0,0,1,4.77-9c-2.52.59-4.75,1-6.94,1.64a4.23,4.23,0,0,0-3,3q-1.54,4.86-3.15,9.69c-.73,2.2-1.51,4.38-2.25,6.58-.17.51-.49,1.32.08,1.52,1.16.42.58,1,.37,1.6a36.65,36.65,0,0,0-1.55,5.41c-.48,2.54-.75,5.06,1.06,7.42A47.89,47.89,0,0,0,138,159.48l1-1.14a30.36,30.36,0,0,0,5.31-8.63c3.3-8.62-.26-17.16-8.69-20.71a43.47,43.47,0,0,0-7.44-2.26,49.39,49.39,0,0,0-5.4-.85,4.5,4.5,0,0,1,.52-.29,43.09,43.09,0,0,0,12.9-6.21,20.54,20.54,0,0,0,8.59-11.73c1.71-6.19-.08-10.8-5.59-14.09C133.9,90.4,128,89.41,122,88.91c-.81-.06-2.09.31-2.32-.32-.29-.82.75-1.57,1.35-2.24a17.69,17.69,0,0,0,2.29-2.6c.11-.2.31-.46.11-.65a.84.84,0,0,0-.67-.16,2.86,2.86,0,0,0-.86.38,21.25,21.25,0,0,0-5.69,4.73,1.83,1.83,0,0,1-1.51.75,97,97,0,0,0-20.44,2.44c-9.17,2.1-18.19,4.66-26.64,8.88-9,4.5-16.49,10.67-21.41,19.61-3.22,5.85-4.62,11.91-1.66,18.34a1,1,0,0,1,0,.79c-.82,2.29-1.57,4.61-2.45,6.88a55.65,55.65,0,0,1-3.65,8.2,10.35,10.35,0,0,1-3.69,4c-1.77,1-3.57.83-4.56-.49a7.71,7.71,0,0,1-1.66-4.05c-.34-3.84.69-7.53,1.24-11.27a1.57,1.57,0,0,1,.37-.61,86.44,86.44,0,0,0,12.06-22.93,75.82,75.82,0,0,0,4.26-15.08,9.06,9.06,0,0,0-.5-4.94c-.9-2.12-2.24-2.65-4.31-1.71A9.89,9.89,0,0,0,38,100a34.31,34.31,0,0,0-4.84,9.32,207.54,207.54,0,0,0-6.5,22.56c-1,4.23-1.32,8.6-2.55,12.78-1.46,5-3.08,9.85-6.21,14.07a12.65,12.65,0,0,1-5.72,4.57c-3.24,1.21-5.65-.07-6.38-3.45a19.71,19.71,0,0,1-.1-7.5,1.55,1.55,0,0,1,1.18-1.4,25.05,25.05,0,0,0,12.54-9.4c1.78-2.62,3.17-5.38,3.08-8.65a3.71,3.71,0,0,0-3.9-3.94A10.1,10.1,0,0,0,12.35,131c-5,3.49-8,8.52-10.13,14.08C.48,149.62-.52,154.3.28,159.18a7.89,7.89,0,0,0,9,6.85,13.77,13.77,0,0,0,6.89-2.86,21.34,21.34,0,0,0,6.19-8.55c.4-.91.77-1.85,1.16-2.77a38.5,38.5,0,0,0,.81,5.35,4.87,4.87,0,0,0,5.18,3.88c4.13-.1,7.2-2.22,9.55-5.4A30.13,30.13,0,0,0,44,145.86c.53-1.9,1.15-3.78,1.72-5.65.13,0,.19,0,.21,0,4.33,4.89,10,5.61,15.83,4.36A17.75,17.75,0,0,0,74.45,134a15.18,15.18,0,0,0,1.36-6.64c0-.75-.35-1.38-1.19-1.35-.67,0-.86.56-.91,1.19-.61,7.65-7.41,16.08-17.43,15.09-4.16-.41-6.93-2.67-7.94-6.66a13.69,13.69,0,0,1-.4-4.28,22.22,22.22,0,0,1,2.78-9c4.43-8.42,11.16-14.54,19.49-18.9a104.57,104.57,0,0,1,34.28-11,72,72,0,0,1,8.68-.78,1.7,1.7,0,0,1-.49,1.15c-8.34,12.39-14.3,25.92-19.08,40-2.44,7.18-4.71,14.43-7.69,21.42a79.44,79.44,0,0,1-7.2,13.92,1.21,1.21,0,0,1-1.56.59c-2.94-.76-5.82-1.71-8.73-2.57-5.31-1.57-10.66-2.49-16.17-1-4.45,1.16-7.9,3.56-10,7.78a7.52,7.52,0,0,0-.64,5.13c1,4.26,3.69,6.79,8.19,7.42,5.46.78,10.66-.41,15.72-2.33A39.79,39.79,0,0,0,80,173.29c.34-.35.59-.82,1.28-.66,2.48.58,5,.85,7.66,1.2-.46.84-.9,1.59-1.3,2.36-2.59,4.9-4.11,10.06-3.58,15.66.63,6.59,4.06,11.57,9.19,15.51a1.49,1.49,0,0,1,.65,1.87c-2.11,7.8-3.35,15.7-2.48,23.82a36.73,36.73,0,0,0,7,18.85c4.11,5.4,9.4,8.72,16.31,9a31.45,31.45,0,0,0,13-2.38c10-3.92,18.14-10.32,25.49-17.93a79.39,79.39,0,0,0,6.27-7.5c-.12,1.41-.2,2.44-.3,3.47a114.18,114.18,0,0,1-7.26,29,2.88,2.88,0,0,1-2.28,2c-10.31,2.6-20.56,5.44-30.22,10a80.15,80.15,0,0,0-23.11,15.88,21.45,21.45,0,0,0-6.15,10.24c-.74,3.23.29,5.66,3.19,7.26A16.69,16.69,0,0,0,102,313c5.8-.14,11.08-2.15,16-4.92,16.13-9.09,29.11-21.37,37.56-38.07.2-.4.37-.75.89-.86,8.75-1.9,17.5-3.85,26.54-3.56a6.4,6.4,0,0,0,2.26-.22c.4-.14.76-.34.8-.79s-.29-.8-.71-1a5.87,5.87,0,0,0-2.34-.41A110.44,110.44,0,0,0,161.77,265l-4.64.82c1.93-4.57,3.64-9,5.23-13.48a87.71,87.71,0,0,0,5.44-25.08,23.44,23.44,0,0,0-.06-5.74c-.66-3.24-3.37-4.38-6.18-2.68a9.85,9.85,0,0,0-3.15,3.24,30.19,30.19,0,0,0-3.58,8.6,18.75,18.75,0,0,1-3.55,7,53.11,53.11,0,0,1-15.27,13c-5,2.86-10.24,5-16.11,5.32-7.58.48-13.42-2.67-16.88-9.42a38.1,38.1,0,0,1-3.74-14.65c-.5-6.46.59-12.74,2.22-19,.52-2,.52-2,2.47-1.28l.8.26a50.26,50.26,0,0,0,21.46,1.71,69.1,69.1,0,0,0,33.63-12.88c6.71-5,11.69-11.23,13.89-19.42,2.66-9.9-2.07-18.95-11.69-22.51-.73-.27-1.48-.47-2.34-.75,4.9-3.78,7.05-9.24,9.45-14.54a20.7,20.7,0,0,0,.42,7.53,5,5,0,0,0,6.66,3.76,9.12,9.12,0,0,0,3.8-2.21,20.78,20.78,0,0,0,3.67-4.86,40.89,40.89,0,0,0,2.88-6.3c.12.72.18,1.11.24,1.5.83,5.82,5.13,8.84,10.91,7.68a15.59,15.59,0,0,0,7.91-4.26l2-1.9c-.46,1.54-.86,2.9-1.31,4.42a18.59,18.59,0,0,1,4-1.4,4,4,0,0,0,3.17-3,86.24,86.24,0,0,1,9.25-20.08,39.79,39.79,0,0,1,6.8-8.34c.78-.68,1.77-1.22,2.73-.59s.44,1.7.14,2.53c-.75,2.06-1.62,4.08-2.41,6.13-1.51,3.93-2.91,7.89-2.63,12.2a6.23,6.23,0,0,0,1.54,4.29,6.52,6.52,0,0,0,8.05,1,13.37,13.37,0,0,0,4.47-4.44,49.11,49.11,0,0,0,5.33-11.1c.64-1.77,1.24-3.56,2-5.6a63.77,63.77,0,0,0,21.6,36.06c-1.93-.06-3,1-4.17,2-3.11,2.76-4.9,6.36-6.42,10.13-2.33,5.74-4.28,11.62-6,17.56a1.71,1.71,0,0,1-1.51,1.39c-1.88.34-3.75.8-5.61,1.25a1.62,1.62,0,0,0-1.07,2.08c.27.91.94.67,1.56.53l1.05-.25,4.39-.94c-1.36,5.58-2.59,10.95-3.53,16.38a70.78,70.78,0,0,1-1.34,8A94.47,94.47,0,0,1,243,227.18a19,19,0,0,1-5.46,7.18,9.79,9.79,0,0,1-5.89,2.11,33.36,33.36,0,0,0,3.74-5c3.57-5.85,3.82-11.73.2-17.65-1.43-2.35-3-4.65-4.35-7a13.5,13.5,0,0,1-1.41-10.3c.66-2.66,3.29-5.57,6.65-4.51.7.23,1.42.08,1.6-.79s-.44-1.11-1.08-1.33c-2.76-.93-6.32.32-8.67,3a20.68,20.68,0,0,0-4,7.59c-2.48,8-5,15.94-7.76,23.81a2,2,0,0,1-.69,1.21,7.69,7.69,0,0,0-3.26,7.84,1.67,1.67,0,0,1-.19,1.14,24.35,24.35,0,0,1-2.79,4.18,7.83,7.83,0,0,1-3.29,2.51,2.33,2.33,0,0,1-3.11-1.24,6.76,6.76,0,0,1-.56-2.07,19,19,0,0,1,.39-6.67c1.47-7,3.88-13.75,6-20.59a26.27,26.27,0,0,1,5.05-9.84c0-.06,0-.19.08-.34-1.82.39-3.56.83-5.32,1.15a6.44,6.44,0,0,0-5.45,5c-2.11,7.08-4.47,14.08-7.13,21-1.95,5.07-3.9,10.15-7,14.69a14.72,14.72,0,0,1-3,3.42c-2.11,1.63-4.16,1-4.93-1.54a11.17,11.17,0,0,1-.15-5.45A130.19,130.19,0,0,1,185,225.55c1.43-4.65,2.67-9.37,4.72-13.82a28.72,28.72,0,0,1,4.23-6.8c-2.63.58-5,1.06-7.37,1.64a5.09,5.09,0,0,0-4,3.42c-1.93,6.13-3.95,12.24-6.11,18.3A4.33,4.33,0,0,0,176,230c0,.38.11.85.49.85,1.35,0,.68.73.5,1.26-.34,1-.74,2-1.05,3.06-.88,2.92-1.7,5.9-1.12,9,.76,4,3.07,5.61,6.38,5.49a9.91,9.91,0,0,0,6.16-2.34,20.16,20.16,0,0,0,3.45-3.81,53,53,0,0,0,5.7-10.91,2,2,0,0,1,.67-1.16c-.06.55-.11,1-.15,1.42a17.38,17.38,0,0,0,.85,8.15,5.47,5.47,0,0,0,6.69,3.64,11.21,11.21,0,0,0,6.38-4.18c.9-1.06,1.7-2.2,2.6-3.38a7.15,7.15,0,0,0,5.75,4.08,12.83,12.83,0,0,0,8.93-2,3,3,0,0,1,1.77-.52,13.55,13.55,0,0,0,10.39-4.43,30.67,30.67,0,0,0,5.4-8.15c.48-1.12,1-2.24,1.64-3.67a18.17,18.17,0,0,0,1,5.92,7.6,7.6,0,0,0,10.38,4.48,13.08,13.08,0,0,0,4.45-3,28.67,28.67,0,0,0,5.58-8.46c.53-1.13,1-2.3,1.63-3.72a19.47,19.47,0,0,0,1.67,6.6,6.71,6.71,0,0,0,7.39,3.88,13.5,13.5,0,0,0,5.36-2,26.18,26.18,0,0,0,4.74-3.85c.29-.28.46-.64,1.07-.3,4.1,2.31,8.36,1.75,12-1.31a22.73,22.73,0,0,0,5.37-7.12,69.22,69.22,0,0,0,5.74-16.23c.14-.58.35-1.19-.4-1.38a1.19,1.19,0,0,0-1.51.84c-.21.65-.36,1.31-.56,2-1.9,6.28-3.88,12.52-7.79,17.93a11.7,11.7,0,0,1-3.28,3.44c-2.37,1.46-5.44,1.45-7.23,0-.65-.52-.84-.92-.25-1.72a49.11,49.11,0,0,0,8.1-18,22.23,22.23,0,0,0-.59-13.21c-1.45-3.75-4.31-5.32-8.27-4.64a15.91,15.91,0,0,0-8,4.17,41,41,0,0,0-10.57,15.65c-1.39,3.46-2,7.16-3.36,10.62-1.91,4.75-3.87,9.47-7.1,13.53a9,9,0,0,1-5,3.08,2.47,2.47,0,0,1-3-1.31,7.67,7.67,0,0,1-1-4.38c.14-4.52.73-9,1.06-13.5a2.28,2.28,0,0,1,.62-1.26,92.3,92.3,0,0,0,12-21.36,1.82,1.82,0,0,1,1.52-1.27c1.88-.36,3.75-.81,5.62-1.23,1.05-.24,1.13-1.07,1-1.88s-.8-.93-1.57-.73c-1.28.33-2.58.56-3.86.88-.83.21-1.17.19-.81-.85q1.28-3.56,2.34-7.18c1.54-5.27,3.54-10.49,2.14-16.24a62.9,62.9,0,0,0,85.69-11.95C380.11,121.64,376,88.18,360.19,69ZM203.32,114.6a6.84,6.84,0,0,1,2.22-1.81c1.29-.63,2.17-.21,2.47,1.21a8.88,8.88,0,0,1,.06,3.21c-1,6.35-7.08,13.09-14.48,15.57A53.19,53.19,0,0,1,203.32,114.6ZM35.49,118.87a91.54,91.54,0,0,1,5.31-14.62,15.44,15.44,0,0,1,1.91-3.17c.25-.29.48-.72.95-.59s.54.57.64,1a8.19,8.19,0,0,1,0,3.45c-1.18,7.16-3.87,13.83-6.78,20.41a85.59,85.59,0,0,1-6.19,11.76l-.84,1.29C31.81,131.76,33.57,125.3,35.49,118.87ZM15.83,132.35a4.94,4.94,0,0,1,1.72-1.28c1.2-.55,1.93-.19,2.19,1.09a8.61,8.61,0,0,1-.37,4.72A20.33,20.33,0,0,1,7,149.26a3.26,3.26,0,0,1-.58.07C8.72,143.07,11.43,137.24,15.83,132.35Zm42,49.79a11.86,11.86,0,0,1-3.94.13,6.9,6.9,0,0,1-6.3-6.48c-.29-2.87,2.15-6.39,5.16-7.33A16,16,0,0,1,60,168c5.41.82,10.69,2.18,16.22,3.53C71,177,65.13,180.79,57.86,182.14Zm82,104a83,83,0,0,1-28.53,21,19.69,19.69,0,0,1-11,1.87,9.19,9.19,0,0,1-1.64-.34,3.45,3.45,0,0,1-2.55-4.46,11.51,11.51,0,0,1,2.17-4.49c3.87-5.23,8.75-9.4,13.89-13.3,7.7-5.83,16.51-9.34,25.62-12.21,3.87-1.22,7.78-2.35,12-3.39A63.93,63.93,0,0,1,139.83,286.14Zm-57-116c1.32-1.88,2.62-3.55,3.74-5.33a150.6,150.6,0,0,0,11.07-22.69c5.36-13,10.56-26.14,15.87-39.19,1.45-3.55,3.09-7,4.64-10.52.2-.46.4-.82,1-.78,4.32.21,8.61.55,12.68,2.2,4.42,1.8,6.85,5.12,6.74,9.23a13.4,13.4,0,0,1-1.1,4.88,27.3,27.3,0,0,1-12.16,13.73c-2.66,1.46-5.62,1.73-8.52,2.25-2.36.42-4.73.77-7.1,1.17a4.44,4.44,0,0,0-2.36,1.07c-1.06,1-.85,1.89.51,2.41a21.68,21.68,0,0,0,5.3.88c4.87.57,9.79.77,14.57,2.05,8.93,2.38,10.74,9.71,9.58,15.8a17.29,17.29,0,0,1-1.63,4.74c-5.35,10.22-13.64,16.54-25,18.53A77.78,77.78,0,0,1,82.82,170.11Zm12.76,34c-6.27-5.45-9.25-12-8.13-20.19a29.57,29.57,0,0,1,3-9,1.37,1.37,0,0,1,1.55-.9,98.41,98.41,0,0,0,19.71-.72c1.52-.22,3-.6,4.82-1C106.6,181.09,100,191.75,95.58,204.13ZM169,176.5c-.4,4.45-2.41,8.32-4.88,12a46,46,0,0,1-19.24,15.94c-8.31,3.83-16.92,6.52-26.22,6.28a32.15,32.15,0,0,1-14.47-2.77c-.74-.35-.87-.68-.61-1.45,5.44-16.14,14.91-29.32,28.86-39.16a33.73,33.73,0,0,1,19.44-6.62,29.15,29.15,0,0,1,6.31.66C167,163.22,169.58,170,169,176.5Zm50.36,61.55c-1.79-1.85-1.7-5.09.33-7.72.88,3.38,2.26,6.3,5.86,7.69C223.12,239.67,220.89,239.64,219.35,238.05ZM231,227.54a14.88,14.88,0,0,1-2.89,8.23,1.23,1.23,0,0,1-1.71.44,7.58,7.58,0,0,1-4.29-4.43,17.89,17.89,0,0,1-.95-3.83c-.25-1.5-.72-2.82-2.64-2.91,2.55-7.92,5.08-15.73,7.6-23.54h.21c.07.5.15,1,.22,1.51.56,4.21,2,8.22,2.93,12.34S231.28,223.38,231,227.54Zm46.76-12.69a57.16,57.16,0,0,1,6.75-20.45,26.28,26.28,0,0,1,4.85-6.21,8.75,8.75,0,0,1,3-1.92c2.76-1,4.73,0,5.54,2.84a18.64,18.64,0,0,1,.43,7.13c-.6,5.6-2.53,10.84-4.7,16a3.6,3.6,0,0,0-2.29-3.45,4.17,4.17,0,0,0-4.45,1.57,6.84,6.84,0,0,0-.61,5.77,8,8,0,0,0,1.92,3.54c.25.27.51.48.15.89a12.69,12.69,0,0,1-5.08,4.07c-2.64,1-4.45,0-5.21-2.67A16.68,16.68,0,0,1,277.78,214.85Zm-22-9.6c.39-1.6.77-3.21,1.17-4.81.9-3.64,1.83-7.28,2.71-10.93a1.29,1.29,0,0,1,1.15-1.14c1.48-.27,2.95-.64,4.66-1A93.09,93.09,0,0,1,255.73,205.25Zm15.75-37.66a84.3,84.3,0,0,1-4.73,16.18.93.93,0,0,1-.72.71c-1.71.36-3.41.75-5.38,1.18,2.26-7.48,3.94-14.86,7.35-21.65a8.55,8.55,0,0,1,1.86-2.63c.69-.61,1.18-.53,1.48.4A12.55,12.55,0,0,1,271.48,167.59Z"/><path class="cls-1" d="M302.58,83.3c.61,3.29,1.15,6.59,1.75,10.09,0-.52.08-.83.1-1.14a159.8,159.8,0,0,0-1.14-26.06c-1.25-10-3.63-19.79-5.7-29.64A164.49,164.49,0,0,1,293.8,8.7c-.11-2.9,0-5.8,0-8.7h-.4c-.92,6-1.58,12-1.91,18.07a115.89,115.89,0,0,0,4.12,36.87C298.15,64.33,300.81,73.71,302.58,83.3Z"/><path class="cls-1" d="M313.63,104.61c.4,2.26.78,4.53,1.16,6.79H315c0-.68,0-1.36,0-2,.41-12.67-1.42-25.08-4.23-37.39-2.14-9.35-4-18.75-4.44-28.36-.11-2.55,0-5.11,0-7.66h-.36c-.07.5-.15,1-.23,1.5-2.22,14.5-2,28.87,2,43.09C310,88.48,312.16,96.46,313.63,104.61Z"/></g></g></svg>