<?xml version="1.0"?>
<svg xmlns="http://www.w3.org/2000/svg" viewBox="0 0 64 64" width="512" height="512"><g id="outline"><path d="M61,46H49.92L48.226,25.668A4.024,4.024,0,0,0,44.24,22H40.816A2.966,2.966,0,0,0,41,21a2.99,2.99,0,0,0-4.216-2.737A12.514,12.514,0,0,0,35.021,14,4,4,0,0,0,39,10V8H35a4,4,0,0,0-4,4v.207c-1.954.788-3.289,3.753-3.784,6.056A2.977,2.977,0,0,0,23.184,22H19.76a4.024,4.024,0,0,0-3.986,3.668L14.08,46H3a1,1,0,0,0-1,1v1a5.006,5.006,0,0,0,5,5H8v3a1,1,0,0,0,1,1H55a1,1,0,0,0,1-1V53h1a5.006,5.006,0,0,0,5-5V47A1,1,0,0,0,61,46ZM38,20a1,1,0,1,1-1,1A1,1,0,0,1,38,20ZM35,10h2a2,2,0,0,1-2,2H33A2,2,0,0,1,35,10Zm-3,4c1.266,0,3,3.828,3,6,0,.5,0,2-3,2s-3-1.5-3-2C29,17.828,30.734,14,32,14Zm-6,6a1,1,0,1,1-1,1A1,1,0,0,1,26,20Zm-8.232,5.834A2.011,2.011,0,0,1,19.76,24H44.24a2.011,2.011,0,0,1,1.992,1.834L46.413,28H44a3,3,0,0,0-3,3v8a1,1,0,0,1-.353.762,1.007,1.007,0,0,1-.822.224A1.085,1.085,0,0,1,39,38.893v-7a3,3,0,0,0-3.5-2.96A3.082,3.082,0,0,0,33,32v3a1,1,0,0,1-1.175.986A1.085,1.085,0,0,1,31,34.893V29a3,3,0,0,0-3.5-2.959A3.082,3.082,0,0,0,25,29.107V41a1,1,0,0,1-.353.762,1.011,1.011,0,0,1-.822.224A1.085,1.085,0,0,1,23,40.893V31a3,3,0,0,0-3-3H17.587ZM17.42,30H20a1,1,0,0,1,1,1v9.893a3.082,3.082,0,0,0,2.5,3.066,3.007,3.007,0,0,0,2.44-.673A3,3,0,0,0,27,41V29.107a1.085,1.085,0,0,1,.825-1.093,1.006,1.006,0,0,1,.822.224A1,1,0,0,1,29,29v5.893a3.082,3.082,0,0,0,2.5,3.066A3,3,0,0,0,35,35V32a1.084,1.084,0,0,1,.825-1.093A1,1,0,0,1,37,31.893v7a3.082,3.082,0,0,0,2.5,3.066A3,3,0,0,0,43,39V31a1,1,0,0,1,1-1h2.58l1.333,16H16.087ZM54,55H10V53H54Zm3-4H7a3,3,0,0,1-3-3H60A3,3,0,0,1,57,51Z"/><rect x="31" y="18" width="2" height="2"/></g></svg>
